<svg width="597" height="582" viewBox="0 0 597 582" fill="none" xmlns="http://www.w3.org/2000/svg">
<path d="M521.504 409.835C511.977 419.012 510.054 425.317 514.53 439.258L526.154 447.556C535.876 438.018 543.15 433.052 559.476 424.923C574.044 424.483 581.12 422.457 590.473 413.607C594.495 397.159 596.491 387.931 595.897 371.359C589.069 368.616 585.231 367.353 578.074 371.359C570.62 369.432 566.503 369.588 559.476 375.131L559.401 375.119C551.253 373.779 546.664 373.024 538.552 379.657C530.388 379.226 526.347 379.978 521.504 385.693V409.835Z" fill="#E0D6CD"/>
<path d="M101 306.668C109.429 337.356 118.873 352.308 135.34 379.157C143.416 383.103 147.487 381.361 154.851 379.157C161.324 372.726 162.76 368.556 164.997 361.035C164.917 357.001 165.297 354.699 167.297 350.464L168.119 346.688L173.582 339.892C177.536 333.7 178.021 330.228 173.582 324.036L166.582 319.11L164.997 317.995C163.552 312.602 162.406 311.469 160.194 310.444L158.754 308.179C154.444 301.982 151.615 300.441 146.266 299.117C145.055 294.623 143.399 292.71 139.242 290.056C122.909 292.784 114.529 296.318 101 306.668Z" fill="#E0D6CD"/>
<path d="M505.153 439.18C496.356 444.157 493.65 447.787 492.075 455.795L515.153 467.879C523.722 464.17 527.03 461.215 527.461 452.774C520.817 441.772 515.578 439.772 505.153 439.18Z" fill="#A2DFE0"/>
<path d="M156.672 384.048H132.825C130.934 391.422 131.082 395.556 132.825 402.929C153.416 403.45 154.365 402.929 156.672 397.643C158.98 392.356 161.728 388.921 156.672 384.048Z" fill="#A2DFE0"/>
<path d="M273.615 724.452H245.692L247.124 744.774H272.899L273.615 724.452Z" fill="#F1DD40"/>
<path d="M73.607 1194.41L70.5384 1166.78C80.6886 1163.33 86.3952 1163.27 96.6215 1165.2C102.332 1176.61 101.496 1183 98.923 1194.41H73.607Z" fill="#E0D6CD"/>
<path d="M352.083 1166.78L347.48 1187.31L375.865 1190.46C373.802 1184.07 371.99 1180.5 382.769 1173.88C372.17 1168.1 365.82 1165.74 352.083 1166.78Z" fill="#E0D6CD"/>
<path d="M100.901 1192.25H66.1314C26.5369 1220.67 13.3801 1234.27 2 1255.41C44.5051 1268.39 66.7521 1262.96 106.31 1252.29C107.919 1228.95 107.416 1215.82 100.901 1192.25Z" fill="#4E4E4E"/>
<path d="M380.607 1186.79C366.426 1191.61 358.474 1190.46 344.292 1186.79C334.984 1207.88 332.357 1220.15 337.338 1243.71C384.375 1249.76 454.011 1249.95 458.647 1246.83C463.283 1243.71 408.466 1211.48 380.607 1186.79Z" fill="#4E4E4E"/>
<path d="M291.181 776.663C262.315 771.821 246.641 772.224 219.281 776.663C173.394 853.173 143.591 892.999 87.0781 961.512C81.7674 1039.08 87.4438 1082.83 101.767 1161L54.6071 1166.39C34.8009 1088.85 38.1009 1047.61 47.649 974.606C105.966 881.303 146.968 830.483 219.281 739.693C250.04 749.927 274.255 747.549 320.56 739.693C374.374 828.5 390.06 887.142 423.385 988.469C419.49 1059.89 412.63 1100.65 395.552 1174.09L349.938 1166.39C369.984 1097.23 376.852 1058.29 379.317 988.469C352.605 896.559 333.008 850.56 291.181 776.663Z" fill="#907650"/>
<path d="M163.441 398.799C149.439 406.973 141.06 407.946 125.423 404.976C120.794 471.953 125.386 508.797 130.078 574.856C136.571 609.439 145.082 610.117 161.113 608.06C195.15 578.2 199.478 554.22 206.114 513.082L200.683 574.856C195.612 647.058 190.317 687.365 161.113 757.864C134.127 817.578 114.072 849.231 71.1119 903.034C51.2229 931.213 45.03 948.464 40.0769 981.024C102.879 912.176 140.99 880.089 191.373 783.346C222.53 731.567 236.306 700.003 247.236 634.314L260.426 453.624L273.615 358.645C245.483 359.679 229.598 359.342 203.011 373.317C186.164 417.096 179.818 443.078 171.222 490.688C171.714 452.36 171.355 431.313 163.441 398.799Z" fill="#FAFAFA"/>
<path d="M409.263 396.248C385.118 376.781 368.991 369.348 334.469 363.726C326.759 441.26 321.079 508.402 315.192 554.213L299 725.342C299.176 766.694 313.386 795.423 345.264 849.236C374.19 915.098 395.648 948.629 437.021 1006.43C392.581 895.71 363.966 834.672 342.18 717.599C340.451 685.783 344.093 668.699 352.975 638.616C367.495 587.535 367.129 559.196 369.938 508.527C374.053 545.937 374.97 566.573 384.589 605.32C401.006 619.44 410.349 618.739 426.997 601.448C463.885 557.625 485.025 531.203 524.923 475.231C509.005 473.151 500.133 473.001 483.285 452.775C462.875 491.572 450.449 512.847 417.745 545.696C418.192 490.251 416.166 457.399 409.263 396.248Z" fill="#FAFAFA"/>
<path d="M329.462 379.277C306.971 394.693 294.321 394.538 271.726 373.887C256.71 515.849 248.673 596.189 225.385 721.911H292.997L329.462 379.277Z" fill="#9EE1E0"/>
<path d="M331.129 359.391C310.389 360.82 299.195 358.563 280.426 345.944C276.768 350.528 275.201 355.793 273.615 371.345C294.229 389.344 305.864 391.167 326.588 378.068C331.038 373.371 333.387 370.597 331.129 359.391Z" fill="#E0D6CD"/>
<path d="M256.196 319.215H239.103C238.432 310.688 239.49 305.169 242.988 294.474C224.605 296.564 217.104 294.86 204.917 290.609C207.31 277.659 211.433 270.075 225.118 255.817L183.162 231.077C196.307 217.367 206.657 211.579 228.226 203.244C210.494 186.329 198.765 179.038 174.615 169.999C199.88 158.318 214.807 154.19 242.988 151.443C225.449 120.06 218.961 101.598 213.463 67.1708C243.639 84.3725 261.805 91.651 297.375 100.416C309.526 70.7701 313.039 48.7754 315.245 3C341.823 32.3286 351.348 50.0114 360.309 83.4067C390.38 55.4932 407.015 44.29 436.451 28.5137C435.542 46.5292 441.187 53.7831 430.235 76.4485C415.18 96.5085 413.532 105.01 415.473 118.198C450.937 126.427 471.084 124.763 507.154 118.198C484.431 126.46 474.724 133.572 463.644 151.443C454.674 169.512 445.084 175.98 430.235 189.327C453.745 202.284 466.813 203.567 490.061 203.244C464.185 216.007 448.532 220.314 430.235 251.952C434.856 267.38 444.502 272.213 463.644 279.785C456.316 286.188 447.302 287.57 424.019 286.743C426.396 294.936 427.744 303.066 430.235 326.946C414.789 326.1 407.778 323.313 396.826 316.122C396.351 325.671 395.505 331.073 392.164 340.863L384.394 335.451L396.826 316.122C400.206 309.774 401.653 304.172 403.818 292.155C408.425 273.767 410.34 262.5 412.365 240.355C416.969 203.159 416.428 182.073 405.372 143.712C392.565 120.033 382.229 108.482 340.885 100.416C311.519 104.864 295.603 108.892 274.066 135.207C263.594 156.234 258.586 168.639 253.088 193.193C249.122 209.77 248.394 219.333 247.65 236.489C246.919 249.652 246.645 256.941 247.65 268.961C243.894 278.856 242.991 284.446 242.988 294.474C246.141 305.052 249.647 310.188 256.196 319.215Z" fill="#B3DCF2"/>
<path d="M243.481 724.452H223.223L217.769 739.693L243.481 743.081V724.452Z" fill="#423E25"/>
<path d="M276.204 747.314V724.452L277.762 725.298L296.462 724.452V743.081L276.204 747.314Z" fill="#423E25"/>
<path d="M249.962 270.065C244.985 275.015 243.646 281.262 244.516 300.363C256.413 317.659 264.542 327.49 283.415 345.42C300.128 359.947 311.026 361.994 331.649 360.957C362.756 356.948 378.433 349.48 399.332 315.123C401.755 310.943 402.762 306.724 403.222 291.817C429.142 283.113 428.505 274.799 410.224 256.082C414.525 227.271 417.064 211.209 413.336 176.843C410.661 153.64 409.451 140.646 383.773 116.249C357.516 102.231 341.516 95.8902 307.532 110.034C292.93 115.015 285.452 123.69 273.301 138.001L273.245 138.143C258.175 176.417 249.616 198.153 246.754 238.042C223.9 252.743 227.586 263.487 249.962 270.065Z" fill="#E0D6CD"/>
<path d="M289.337 265.239C277.34 263.436 271.453 265.617 262.254 274.303L258.385 292.431C259.241 308.942 268.62 316.732 297.076 328.687C313.269 332.647 326.097 333.391 352.791 333.219C375.627 324.706 388.756 320.188 384.517 290.165C385.03 280.843 382.503 276.86 357.433 278.835L345.052 284.122C331.501 285.378 324.723 284.839 314.1 281.856C306.151 273.532 300.403 270.242 289.337 265.239Z" fill="#7F3438"/>
<path d="M294.544 282.605C288.505 277.924 287.768 274.468 290.007 267.194L304.374 274.532L316.473 284.073L330.084 286.274H332.353L345.208 285.54L359.576 280.403H372.431C373.095 285.685 372.159 288.099 366.381 290.678C361.3 288.118 360.47 286.073 360.058 283.517C360.621 288.289 359.832 291.642 354.282 296.548C349.35 292.856 347.713 290.293 345.208 285.54C346.235 289.553 346.08 291.802 345.208 295.815C343.567 298.719 342.051 299.696 338.402 300.218C335.51 299.619 333.838 299.416 332.353 295.081C331.451 291.53 331.555 289.615 332.353 286.274H330.084C330.845 290.278 330.869 292.518 329.328 296.548C324.576 297.861 321.918 298.464 317.229 295.815C315.87 292.532 315.932 289.684 316.473 284.073C316.138 285.955 314.513 288.228 309.667 294.347C304.137 287.628 302.714 283.371 304.374 274.532C300.826 279.444 298.56 281.48 294.544 282.605Z" fill="#E4D7B7"/>
<path d="M271.077 312.665C272.202 311.064 273.295 310.377 277.951 310.379C283.189 313.576 283.253 316.176 282.534 321.048C284.19 318.272 285.303 316.894 288.644 315.714C295.624 316.811 295.478 320.102 294.754 326.383C294.748 326.441 294.741 326.498 294.736 326.552L295.652 326.76C296.979 324.144 299.288 318.113 300.101 318.762C305.289 317.683 307.038 318.069 308.502 320.286L310.794 330.194C312.543 326.468 313.571 324.478 316.904 324.097C319.279 323.59 320.642 323.605 323.014 324.097C325.621 326.17 326.967 327.459 327.597 331.718C328.655 327.277 329.596 325.326 333.707 325.621C339.159 326.833 340.033 329.07 341.345 333.242C341.773 328.26 342.579 325.782 348.983 324.097C354.503 325.063 356.749 325.851 355.857 328.669C355.463 331.574 356.295 331.061 357.385 330.956L341.345 333.242L327.597 331.718L310.794 330.194L295.652 326.76C294.95 328.143 294.523 328.571 294.736 326.552L293.99 326.383C289.103 325.66 286.341 325.325 282.534 321.048C277.258 318.609 274.782 316.734 271.077 312.665Z" fill="#E4D7B7"/>
<path d="M328.232 142.884C286.928 143.672 274.231 145.698 280.012 153.631C290.521 157.511 306.909 157.905 348.574 156.497L377.958 162.945C397.972 166.439 406.114 167.142 402.068 160.795C399.036 159.262 397.152 158.333 385.492 153.631C366.248 144.041 353.503 142.067 328.232 142.884Z" fill="#B3DCF2"/>
<path d="M319.144 303.134C312.41 304.425 309.757 307.205 306.615 315.18C311.225 316.277 312.859 318.113 312.511 325.621C314.652 322.098 316.591 321.184 322.092 321.605C327.573 317.377 329.236 314.757 329.462 309.558C329.252 303.357 326.892 301.968 319.144 303.134Z" fill="#E25960"/>
<path d="M294.363 168.121C272.222 171.189 265.867 178.783 263.461 200.891C265.807 219.235 273.158 224.791 294.363 228.327C317.475 226.934 324.954 220.676 327.583 198.605C327.794 179.246 322.213 171.61 294.363 168.121Z" fill="white"/>
<path d="M370.845 176.504C352.827 178.51 346.197 183.282 343.034 200.891C339.574 222.381 344.744 230.697 370.845 236.71C396.943 233.186 405.867 226.431 405.61 200.891C401.601 188.117 395.367 182.307 370.845 176.504Z" fill="white"/>
<path d="M271.077 198.242V201.871H276.561L278.128 201.145V197.516L275.778 196.064L274.211 196.79L272.644 198.242H271.077Z" fill="black"/>
<path d="M395.65 210.581L392.516 211.306L390.165 212.032L390.949 215.661L393.299 216.387H398V210.581H395.65Z" fill="black"/>
<path d="M559.476 375.131L559.401 375.119C551.253 373.779 546.664 373.024 538.552 379.657C530.388 379.226 526.347 379.978 521.504 385.693V409.835C511.977 419.012 510.054 425.317 514.53 439.258L526.154 447.556C535.876 438.018 543.15 433.052 559.476 424.923C574.044 424.483 581.12 422.457 590.473 413.607C594.495 397.159 596.491 387.931 595.897 371.359C589.069 368.616 585.231 367.353 578.074 371.359M559.476 375.131C566.503 369.588 570.62 369.432 578.074 371.359M559.476 375.131C565.559 386.019 566.245 392.353 565.675 403.799M578.074 371.359C581.228 382.554 580.622 388.831 578.074 400.027M522.279 407.571C525.307 410.432 526.999 410.129 530.028 407.571C531.527 401.052 530.496 398.148 526.154 393.992M550.176 405.308C548.543 394.994 546.251 389.493 538.552 380.412M146.266 299.117C145.055 294.623 143.399 292.71 139.242 290.056C122.909 292.784 114.529 296.318 101 306.668C109.429 337.356 118.873 352.308 135.34 379.157C143.416 383.103 147.487 381.361 154.851 379.157C161.324 372.726 162.76 368.556 164.997 361.035C164.917 357.001 165.297 354.699 167.297 350.464M146.266 299.117C151.615 300.441 154.444 301.982 158.754 308.179L160.194 310.444M146.266 299.117C134.598 301.638 128.322 304.348 117.39 310.444M166.582 319.11L164.997 317.995C163.552 312.602 162.406 311.469 160.194 310.444M166.582 319.11L173.582 324.036C178.021 330.228 177.536 333.7 173.582 339.892L168.119 346.688L167.297 350.464M166.582 319.11L168.119 317.995C172.544 315.905 189.036 304.52 183.728 303.648C178.42 302.776 165.862 299.585 158.754 293.832L140.803 290.056M166.582 319.11L164.997 320.26C153.161 322.772 147.783 324.896 140.803 330.076M160.194 310.444C146.51 313.225 139.879 315.592 130.657 321.77M150.949 339.892C154.114 340.757 155.832 340.459 158.754 338.005M158.754 338.005C161.937 335.756 163.608 335.796 166.558 336.117M158.754 338.005C159.046 346.441 162.329 347.514 167.297 350.464M171.222 490.688C171.714 452.36 171.355 431.313 163.441 398.799C149.439 406.973 141.06 407.946 125.423 404.976C120.794 471.953 125.386 508.797 130.078 574.856C136.571 609.439 145.082 610.117 161.113 608.06C195.15 578.2 199.478 554.22 206.114 513.082M171.222 490.688L175.079 536.247M171.222 490.688C179.818 443.078 186.164 417.096 203.011 373.317C229.598 359.342 245.483 359.679 273.615 358.645L260.426 453.624L247.236 634.314C236.306 700.003 222.53 731.567 191.373 783.346C140.99 880.089 102.879 912.176 40.0769 981.024C45.03 948.464 51.2229 931.213 71.1119 903.034C114.072 849.231 134.127 817.578 161.113 757.864C190.317 687.365 195.612 647.058 200.683 574.856L206.114 513.082M206.114 513.082C214.925 478.237 217.722 458.582 222.408 423.509L218.528 456.712M218.528 456.712C233.565 419.468 244.845 399.796 268.96 366.367M218.528 456.712C225.129 469.832 231.224 476.313 244.908 486.827C229.914 496.016 220.285 499.502 210.77 516.17C216.325 562.753 221.448 588.566 232.494 634.314M316.735 640.939L359.143 534.08L336.011 493.04L366.083 472.133L342.18 372.244M381.504 417.93L369.938 505.43M262.609 517.101C281.279 527.924 291.748 528.216 310.47 521.72M242.988 294.474C239.49 305.169 238.432 310.688 239.103 319.215H256.196C249.647 310.188 246.141 305.052 242.988 294.474ZM242.988 294.474C224.605 296.564 217.104 294.86 204.917 290.609C207.31 277.659 211.433 270.075 225.118 255.817L183.162 231.077C196.307 217.367 206.657 211.579 228.226 203.244C210.494 186.329 198.765 179.038 174.615 169.999C199.88 158.318 214.807 154.19 242.988 151.443C225.449 120.06 218.961 101.598 213.463 67.1708C243.639 84.3725 261.805 91.651 297.375 100.416C309.526 70.7701 313.039 48.7754 315.245 3C341.823 32.3286 351.348 50.0114 360.309 83.4067C390.38 55.4932 407.015 44.29 436.451 28.5137C435.542 46.5292 441.187 53.7831 430.235 76.4485C415.18 96.5085 413.532 105.01 415.473 118.198C450.937 126.427 471.084 124.763 507.154 118.198C484.431 126.46 474.724 133.572 463.644 151.443C454.674 169.512 445.084 175.98 430.235 189.327C453.745 202.284 466.813 203.567 490.061 203.244C464.185 216.007 448.532 220.314 430.235 251.952C434.856 267.38 444.502 272.213 463.644 279.785C456.316 286.188 447.302 287.57 424.019 286.743C426.396 294.936 427.744 303.066 430.235 326.946C414.789 326.1 407.778 323.313 396.826 316.122M242.988 294.474C242.991 284.446 243.894 278.856 247.65 268.961C246.645 256.941 246.919 249.652 247.65 236.489C248.394 219.333 249.122 209.77 253.088 193.193C258.586 168.639 263.594 156.234 274.066 135.207C295.603 108.892 311.519 104.864 340.885 100.416C382.229 108.482 392.565 120.033 405.372 143.712C416.428 182.073 416.969 203.159 412.365 240.355C410.34 262.5 408.425 273.767 403.818 292.155C401.653 304.172 400.206 309.774 396.826 316.122M396.826 316.122C396.351 325.671 395.505 331.073 392.164 340.863L384.394 335.451L396.826 316.122ZM304.374 274.532C300.826 279.444 298.56 281.48 294.544 282.605C288.505 277.924 287.768 274.468 290.007 267.194L304.374 274.532ZM304.374 274.532C302.714 283.371 304.137 287.628 309.667 294.347C314.513 288.228 316.138 285.955 316.473 284.073M304.374 274.532L316.473 284.073M316.473 284.073C315.932 289.684 315.87 292.532 317.229 295.815C321.918 298.464 324.576 297.861 329.328 296.548C330.869 292.518 330.845 290.278 330.084 286.274M316.473 284.073L330.084 286.274M330.084 286.274H332.353M332.353 286.274C331.555 289.615 331.451 291.53 332.353 295.081C333.838 299.416 335.51 299.619 338.402 300.218C342.051 299.696 343.567 298.719 345.208 295.815C346.08 291.802 346.235 289.553 345.208 285.54M332.353 286.274L345.208 285.54M360.058 283.517C360.621 288.289 359.832 291.642 354.282 296.548C349.35 292.856 347.713 290.293 345.208 285.54M360.058 283.517C359.994 282.97 359.912 282.405 359.817 281.816M360.058 283.517C359.971 282.976 359.903 282.412 359.817 281.816M360.058 283.517C360.47 286.073 361.3 288.118 366.381 290.678C372.159 288.099 373.095 285.685 372.431 280.403H359.576M359.817 281.816C359.743 281.36 359.662 280.89 359.576 280.403M359.817 281.816C359.752 281.365 359.677 280.896 359.576 280.403M359.576 280.403L345.208 285.54M282.534 321.048C283.253 316.176 283.189 313.576 277.951 310.379C273.295 310.377 272.202 311.064 271.077 312.665C274.782 316.734 277.258 318.609 282.534 321.048ZM282.534 321.048C284.19 318.272 285.303 316.894 288.644 315.714C295.624 316.811 295.478 320.102 294.754 326.383C294.748 326.441 294.741 326.498 294.736 326.552M282.534 321.048C286.341 325.325 289.103 325.66 293.99 326.383L294.736 326.552M294.736 326.552C294.523 328.571 294.95 328.143 295.652 326.76M294.736 326.552L295.652 326.76M295.652 326.76C296.979 324.144 299.288 318.113 300.101 318.762C305.289 317.683 307.038 318.069 308.502 320.286L310.794 330.194M295.652 326.76L310.794 330.194M310.794 330.194C312.543 326.468 313.571 324.478 316.904 324.097C319.279 323.59 320.642 323.605 323.014 324.097C325.621 326.17 326.967 327.459 327.597 331.718M310.794 330.194L327.597 331.718M327.597 331.718C328.655 327.277 329.596 325.326 333.707 325.621C339.159 326.833 340.033 329.07 341.345 333.242M327.597 331.718L341.345 333.242M341.345 333.242C341.773 328.26 342.579 325.782 348.983 324.097C354.503 325.063 356.749 325.851 355.857 328.669C355.463 331.574 356.295 331.061 357.385 330.956L341.345 333.242ZM250.769 268.04C258.894 257.952 264.927 256.068 276.245 254.096M374.29 269.59C393.575 274.64 397.083 279.992 400.538 290.507C400.245 321.002 389.612 329.561 365.798 340.863M351.13 244.024C366.206 256.073 375.355 257.147 393.59 248.673M266.981 234.728C283.541 247.097 293.066 246.985 310.214 242.475M321.022 231.629V261.843C327.349 274.333 330.904 272.938 337.234 261.843L339.55 234.728M492.075 455.795C493.65 447.787 496.356 444.157 505.153 439.18C515.578 439.772 520.817 441.772 527.461 452.774C527.03 461.215 523.722 464.17 515.153 467.879L492.075 455.795ZM132.825 384.048H156.672C161.728 388.921 158.98 392.356 156.672 397.643C154.365 402.929 153.416 403.45 132.825 402.929C131.082 395.556 130.934 391.422 132.825 384.048ZM245.692 724.452H273.615L272.899 744.774H247.124L245.692 724.452ZM70.5384 1166.78L73.607 1194.41H98.923C101.496 1183 102.332 1176.61 96.6215 1165.2C86.3952 1163.27 80.6886 1163.33 70.5384 1166.78ZM347.48 1187.31L352.083 1166.78C365.82 1165.74 372.17 1168.1 382.769 1173.88C371.99 1180.5 373.802 1184.07 375.865 1190.46L347.48 1187.31ZM66.1314 1192.25H100.901C107.416 1215.82 107.919 1228.95 106.31 1252.29C66.7521 1262.96 44.5051 1268.39 2 1255.41C13.3801 1234.27 26.5369 1220.67 66.1314 1192.25ZM344.292 1186.79C358.474 1190.46 366.426 1191.61 380.607 1186.79C408.466 1211.48 463.283 1243.71 458.647 1246.83C454.011 1249.95 384.375 1249.76 337.338 1243.71C332.357 1220.15 334.984 1207.88 344.292 1186.79ZM219.281 776.663C246.641 772.224 262.315 771.821 291.181 776.663C333.008 850.56 352.605 896.559 379.317 988.469C376.852 1058.29 369.984 1097.23 349.938 1166.39L395.552 1174.09C412.63 1100.65 419.49 1059.89 423.385 988.469C390.06 887.142 374.374 828.5 320.56 739.693C274.255 747.549 250.04 749.927 219.281 739.693C146.968 830.483 105.966 881.303 47.649 974.606C38.1009 1047.61 34.8009 1088.85 54.6071 1166.39L101.767 1161C87.4438 1082.83 81.7674 1039.08 87.0781 961.512C143.591 892.999 173.394 853.173 219.281 776.663ZM334.469 363.726C368.991 369.348 385.118 376.781 409.263 396.248C416.166 457.399 418.192 490.251 417.745 545.696C450.449 512.847 462.875 491.572 483.285 452.775C500.133 473.001 509.005 473.151 524.923 475.231C485.025 531.203 463.885 557.625 426.997 601.448C410.349 618.739 401.006 619.44 384.589 605.32C374.97 566.573 374.053 545.937 369.938 508.527C367.129 559.196 367.495 587.535 352.975 638.616C344.093 668.699 340.451 685.783 342.18 717.599C363.966 834.672 392.581 895.71 437.021 1006.43C395.648 948.629 374.19 915.098 345.264 849.236C313.386 795.423 299.176 766.694 299 725.342L315.192 554.213C321.079 508.402 326.759 441.26 334.469 363.726ZM271.726 373.887C294.321 394.538 306.971 394.693 329.462 379.277L292.997 721.911H225.385C248.673 596.189 256.71 515.849 271.726 373.887ZM280.426 345.944C299.195 358.563 310.389 360.82 331.129 359.391C333.387 370.597 331.038 373.371 326.588 378.068C305.864 391.167 294.229 389.344 273.615 371.345C275.201 355.793 276.768 350.528 280.426 345.944ZM223.223 724.452H243.481V743.081L217.769 739.693L223.223 724.452ZM276.204 724.452V747.314L296.462 743.081V724.452L277.762 725.298L276.204 724.452ZM244.516 300.363C243.646 281.262 244.985 275.015 249.962 270.065C227.586 263.487 223.9 252.743 246.754 238.042C249.616 198.153 258.175 176.417 273.245 138.143L273.301 138.001C285.452 123.69 292.93 115.015 307.532 110.034C341.516 95.8902 357.516 102.231 383.773 116.249C409.451 140.646 410.661 153.64 413.336 176.843C417.064 211.209 414.525 227.271 410.224 256.082C428.505 274.799 429.142 283.113 403.222 291.817C402.762 306.724 401.755 310.943 399.332 315.123C378.433 349.48 362.756 356.948 331.649 360.957C311.026 361.994 300.128 359.947 283.415 345.42C264.542 327.49 256.413 317.659 244.516 300.363ZM262.254 274.303C271.453 265.617 277.34 263.436 289.337 265.239C300.403 270.242 306.151 273.532 314.1 281.856C324.723 284.839 331.501 285.378 345.052 284.122L357.433 278.835C382.503 276.86 385.03 280.843 384.517 290.165C388.756 320.188 375.627 324.706 352.791 333.219C326.097 333.391 313.269 332.647 297.076 328.687C268.62 316.732 259.241 308.942 258.385 292.431L262.254 274.303ZM280.012 153.631C274.231 145.698 286.928 143.672 328.232 142.884C353.503 142.067 366.248 144.041 385.492 153.631C397.152 158.333 399.036 159.262 402.068 160.795C406.114 167.142 397.972 166.439 377.958 162.945L348.574 156.497C306.909 157.905 290.521 157.511 280.012 153.631ZM306.615 315.18C309.757 307.205 312.41 304.425 319.144 303.134C326.892 301.968 329.252 303.357 329.462 309.558C329.236 314.757 327.573 317.377 322.092 321.605C316.591 321.184 314.652 322.098 312.511 325.621C312.859 318.113 311.225 316.277 306.615 315.18ZM263.461 200.891C265.867 178.783 272.222 171.189 294.363 168.121C322.213 171.61 327.794 179.246 327.583 198.605C324.954 220.676 317.475 226.934 294.363 228.327C273.158 224.791 265.807 219.235 263.461 200.891ZM343.034 200.891C346.197 183.282 352.827 178.51 370.845 176.504C395.367 182.307 401.601 188.117 405.61 200.891C405.867 226.431 396.943 233.186 370.845 236.71C344.744 230.697 339.574 222.381 343.034 200.891ZM271.077 198.242H272.644L274.211 196.79L275.778 196.064L278.128 197.516V201.145L276.561 201.871H271.077V198.242ZM392.516 211.306L395.65 210.581H398V216.387H393.299L390.949 215.661L390.165 212.032L392.516 211.306Z" stroke="black" stroke-width="2"/>
</svg>
