<svg width="221" height="58" viewBox="0 0 221 58" fill="none" xmlns="http://www.w3.org/2000/svg">
<path d="M150.451 49.8115C150.539 48.7778 150.219 47.8696 149.586 47.0103C148.94 46.1353 148.618 45.19 149.104 44.1477L149.181 43.9105C149.467 42.9713 149.336 42.1036 148.56 41.3833C147.978 40.8411 147.818 40.2193 147.989 39.5039C148.214 38.5638 148.14 37.6921 147.507 36.8492C146.959 36.1177 146.864 35.3102 147.299 34.4448C147.667 33.7184 147.908 32.934 148.141 32.161C148.323 31.5586 148.324 30.9208 148.07 30.3346C147.864 29.8564 147.917 29.4223 148.045 28.9517C148.181 28.4552 148.257 27.9426 148.331 27.4349C148.389 27.0442 148.243 26.6987 147.917 26.4306C147.489 26.0792 147.341 25.6416 147.412 25.1438C147.497 24.5721 147.621 24.0067 147.287 23.4561C147.228 23.3603 147.262 23.2128 147.272 23.0898C147.354 22.0967 147.074 21.1723 146.639 20.2725C146.389 19.7538 146.283 19.2081 146.349 18.6439C146.475 17.5488 146.398 16.4561 146.186 15.383C145.956 14.2289 145.595 13.098 145.323 11.9499C145.228 11.5529 145.167 11.1352 145.194 10.7332C145.25 9.91331 145.36 9.0948 145.482 8.27865C145.631 7.29518 145.9 6.34143 146.374 5.43433C146.828 4.55676 147.25 3.66443 147.672 2.77328C147.823 2.45123 147.952 2.11816 148.043 1.77879C148.153 1.37071 148.147 0.958898 147.871 0.587832C147.504 0.0949137 147.021 0.00278686 146.54 0.415783C146.149 0.75614 145.778 1.14473 145.515 1.56993C144.999 2.40576 144.406 3.17998 143.69 3.88688C143.191 4.37979 142.979 4.9674 142.948 5.63847C142.892 6.94261 142.559 8.16448 141.504 9.1513C141.203 9.43279 140.939 9.74992 140.696 10.0743C140.451 10.3964 140.195 10.7295 140.056 11.0921C139.725 11.9462 139.365 12.8066 139.196 13.6941C138.972 14.8752 138.626 16.0185 138.276 17.1714C137.985 18.1289 137.487 18.9156 136.737 19.6065C136.262 20.0441 135.93 20.5628 135.722 21.1355C135.474 21.8213 135.257 22.5146 135.049 23.2117C134.956 23.5288 134.891 23.8569 134.857 24.1825C134.698 25.741 134.571 27.3022 134.394 28.857C134.352 29.2257 134.389 29.6351 134.103 29.9694L133.981 29.8737C133.525 29.3119 133.47 28.6617 133.4 27.9979C133.238 26.4418 133.061 24.8894 133.131 23.3223C133.151 22.8491 133.131 22.3746 133.147 21.9014C133.161 21.5142 132.979 21.2266 132.652 20.9955C132.528 20.9083 132.398 20.8272 132.254 20.7311C132.28 20.4398 132.306 20.1534 132.331 19.8683C132.39 19.1726 132.284 18.5262 131.781 17.9423C131.602 17.7358 131.523 17.4089 131.526 17.1384C131.533 16.4403 131.606 15.7409 131.668 15.0439C131.716 14.4661 131.484 13.9966 131.033 13.5998C130.918 13.5002 130.768 13.4191 130.686 13.3023C130.557 13.1204 130.37 12.9102 130.382 12.721C130.422 12.0462 130.488 11.3665 130.635 10.7052C130.75 10.184 131.015 9.69106 131.181 9.17728C131.481 8.24794 131.794 7.32254 132.03 6.37981C132.151 5.89792 131.883 5.5611 131.43 5.37823C130.996 5.19988 130.633 5.2428 130.286 5.66701C129.688 6.39477 129.129 7.15305 128.621 7.93101C128.397 8.27629 128.305 8.69913 128.205 9.09755C128.038 9.76626 127.86 10.4312 127.302 10.9375C126.699 11.4858 126.37 12.1531 126.155 12.882C126.121 13.0025 126.052 13.1155 125.973 13.2901C125.596 12.4224 125.442 12.3375 124.627 12.512C124.598 12.394 124.587 12.2698 124.536 12.1604C124.309 11.67 123.878 11.5938 123.471 11.9858C123.301 12.1482 123.128 12.3348 123.044 12.5401C122.73 13.3133 122.413 14.0878 122.167 14.8779C121.922 15.6706 121.799 16.4931 121.561 17.287C121.036 19.0348 120.65 20.8195 119.808 22.4839C119.705 22.6867 119.667 22.9178 119.62 23.139C119.376 24.3302 119.413 25.515 119.694 26.6987C120.031 28.1072 119.998 29.5231 119.752 30.9393C119.596 31.8548 118.995 32.5615 118.349 33.2389C117.324 34.3094 116.876 35.5409 117.004 36.9508C117.065 37.6366 117.228 38.2884 117.537 38.9189C118.073 40.0077 118.27 41.1225 117.785 42.2768C117.704 42.4687 117.645 42.6729 117.618 42.8754C117.545 43.3868 117.523 43.8884 117.783 44.3886C117.93 44.675 117.995 45.0191 117.998 45.3386C118.008 46.5961 117.975 47.8524 117.972 49.1097C117.971 49.3322 118.017 49.5609 118.085 49.7761C118.18 50.0883 118.383 50.344 118.755 50.4212C119.159 50.5048 119.406 50.2688 119.615 50.0147C119.988 49.5586 120.252 49.0544 120.315 48.4877C120.431 47.4688 120.805 46.5274 121.249 45.5943C121.45 45.1693 121.532 44.6811 121.567 44.2166C121.633 43.3046 121.409 42.4148 121.197 41.5272C121.145 41.3097 121.107 41.0723 121.149 40.8573C121.359 39.799 121.811 38.8193 122.711 38.0968C123.451 37.4982 123.759 36.822 123.631 35.9594C123.602 35.7541 123.62 35.5427 123.572 35.3423C123.42 34.7216 123.51 34.123 123.665 33.5108C123.877 32.6688 124.116 31.822 124.194 30.9653C124.325 29.5428 124.596 28.1517 124.97 26.77C125.231 25.8111 125.235 24.8597 124.853 23.9121C124.482 22.9902 124.515 22.0561 124.874 21.1233C125.053 20.6573 125.151 20.1681 125.323 19.6998C125.513 19.1811 125.645 18.6305 126.183 18.1031C126.227 18.402 126.287 18.5949 126.278 18.7829C126.241 19.4 126.193 20.0158 126.124 20.628C126.037 21.4233 126.227 22.1053 127.015 22.5713C127.366 22.7764 127.546 23.0729 127.613 23.4367C127.683 23.8018 127.888 24.1459 128.238 24.2898C129.067 24.6327 129.206 25.2705 129.283 25.9627L129.304 26.1469C129.467 27.3784 129.709 28.5794 130.393 29.6954C130.669 30.1454 130.706 30.7168 130.828 31.2367C130.911 31.5773 130.876 31.9523 131.022 32.2657C131.309 32.8887 131.261 33.5072 131.188 34.1486C131.039 35.5143 131.451 36.3033 132.802 36.5431C133.136 36.6019 133.323 36.784 133.354 37.0925C133.389 37.3986 133.434 37.7045 133.478 38.0106C133.593 38.8096 133.732 39.6061 134.29 40.2772C134.615 40.6693 135.031 40.8957 135.602 40.7776C136.071 40.6791 136.46 40.2502 136.512 39.728C136.562 39.2559 136.604 38.7789 136.574 38.3083C136.491 37.025 136.912 35.8734 137.595 34.7671C137.79 34.4511 137.944 34.0873 137.998 33.7307C138.097 33.0804 138.132 32.4194 138.154 31.7615C138.193 30.5743 138.433 29.4645 139.5 28.6347L139.638 28.4969C140.597 27.3219 141.14 26.0522 140.803 24.5674C140.546 23.4268 140.768 22.3156 141.107 21.2168C141.173 21.0016 141.272 20.7939 141.357 20.5825C141.473 20.8359 141.473 21.062 141.473 21.288C141.475 21.9863 141.714 22.58 142.385 22.9967C142.553 23.101 142.695 23.2437 142.83 23.3837C143.163 23.7292 143.34 24.1188 143.195 24.581C143.06 25.0172 142.924 25.4524 142.775 25.8863C142.487 26.7308 142.065 27.5591 141.927 28.4219C141.73 29.6462 141.798 30.8913 142.331 32.0749C142.439 32.3196 142.549 32.5812 142.567 32.8407C142.603 33.4369 142.622 34.0379 142.579 34.6328C142.432 36.6387 143.043 38.4185 144.493 39.96C144.869 40.3583 144.902 40.7774 144.762 41.2827C144.571 41.9758 144.443 42.69 144.383 43.4018C144.315 44.1664 144.668 44.7662 145.52 45.0587L145.638 45.1695C145.638 45.5579 145.642 45.9695 145.635 46.38C145.629 46.9257 145.83 47.3965 146.292 47.7542C146.654 48.0371 147.027 48.3233 147.437 48.5446C147.856 48.7719 147.982 49.0633 147.922 49.4763C147.864 49.8635 147.843 50.2542 147.814 50.6452C147.79 50.9731 147.882 51.2621 148.237 51.4281C148.565 51.5816 148.805 51.4035 149.051 51.2448L149.184 51.2375L149.272 51.3237C149.674 51.6863 149.934 51.7475 150.29 51.5657C150.644 51.3838 150.718 51.1184 150.589 50.6562C150.512 50.3808 150.428 50.0883 150.451 49.8115Z" fill="#BFDE42"/>
<path d="M40.4979 52.1889C40.3633 51.4257 40.0146 50.7373 39.4046 50.1645C38.6712 49.4702 38.2234 48.6676 38.1548 47.6914C38.0751 46.5703 37.3569 45.8315 36.2196 45.4382C35.8459 45.3081 35.5808 45.1323 35.4024 44.8274C35.1895 44.4634 34.9464 44.1097 34.7694 43.7323C34.5441 43.2542 34.1512 42.9323 33.6224 42.8276C33.0056 42.7034 32.7337 42.3679 32.5978 41.875C32.547 41.6943 32.4783 41.5173 32.448 41.3341C32.2408 40.1529 31.5195 39.2876 30.3877 38.6901C30.0265 38.4984 29.8466 38.2317 29.6763 37.901C29.3301 37.2311 29.0142 36.5169 28.5032 35.9565C27.7751 35.1586 26.8591 34.544 25.5652 35.0013L25.4018 34.9608C25.2454 34.6671 25.1037 34.3401 24.906 34.0425C24.4225 33.321 24.1066 33.2572 23.2962 33.6751L23.1851 33.6812C23.1149 33.5509 23.0395 33.407 22.9599 33.2633C22.6825 32.7669 22.4337 32.2541 22.118 31.7773C21.8349 31.3493 21.4931 30.9611 20.8241 30.9893C20.6539 30.9966 20.4766 30.854 20.1759 30.7277C20.5124 30.5184 20.6867 30.3796 20.8873 30.2912C21.5122 30.0121 21.9847 29.6064 22.221 29.0164C22.3281 28.7509 22.5274 28.6034 22.7951 28.5296C23.1233 28.4398 23.4612 28.3601 23.8019 28.333C24.7194 28.2591 25.3279 27.77 25.7742 27.1259C26.2344 26.4621 26.5736 25.7345 26.7166 24.9502C26.7894 24.5445 26.869 24.1758 27.336 23.929C27.5571 23.8122 27.6946 23.5036 27.7755 23.2579C27.8745 22.9457 27.9172 22.6075 27.913 22.2831C27.9062 21.7189 28.0641 21.2471 28.5173 20.8266C29.347 20.0634 29.5817 19.1193 29.3881 18.0831C29.2315 17.246 29.1328 16.4262 29.4803 15.5891C29.8936 14.5984 29.6299 13.7171 28.6836 13.0497C28.3939 12.8456 28.2865 12.6208 28.336 12.3074C28.3662 12.1241 28.3868 11.9385 28.3963 11.7531C28.4293 11.1176 28.4704 10.4822 28.4746 9.84558C28.4746 9.67098 28.4057 9.46448 28.2892 9.3255C27.4665 8.34833 26.8057 8.0497 25.6451 8.4123C25.406 8.4873 25.1655 8.56978 24.9185 8.60404C24.5188 8.6629 24.3774 8.54754 24.3347 8.1873C24.3046 7.92175 24.3004 7.65147 24.2399 7.39084C24.1189 6.84398 23.7661 6.57843 23.1383 6.5489C22.9102 6.53768 22.6754 6.54772 22.4515 6.58709C21.7579 6.70874 21.1618 6.60559 20.5987 6.17764C20.2032 5.87409 19.7142 5.66267 19.2458 5.44397C18.4313 5.06286 17.5921 4.72369 16.783 4.33392C16.2832 4.09061 15.7654 3.96266 15.2034 3.94435C14.9286 3.93451 14.6458 3.96895 14.3765 3.92584C13.4839 3.78214 12.7626 4.07348 12.0787 4.55164C11.3165 5.08393 10.5404 5.60243 9.74364 6.09299C8.69701 6.73827 7.56393 7.0615 6.28786 6.69654L6.01861 6.64733C5.49948 6.50106 5.03093 6.62154 4.55447 6.82056C3.78676 7.14261 3.14796 7.60226 2.60265 8.17136C2.28259 8.50699 1.95703 8.63475 1.46253 8.43199C1.02302 8.25364 0.768949 8.32746 0.560194 8.63612C0.0604147 9.37491 -0.262506 10.5954 0.774448 11.4753C0.942068 11.6167 1.10969 11.7582 1.28699 11.8895C2.00542 12.4218 2.10265 13.0903 1.83758 13.8462C1.72231 14.1793 1.59451 14.5137 1.52588 14.8553C1.24695 16.2626 1.36948 17.5705 2.70999 18.5748C2.99002 18.7839 3.22913 19.0457 3.45306 19.3061C3.85408 19.7721 4.15632 20.2673 3.97374 20.9004C3.83626 21.3772 3.77731 21.8713 3.64268 22.3471C3.52852 22.749 3.52852 23.1115 3.7938 23.4705C3.88861 23.5983 3.95592 23.7813 3.93943 23.929C3.89565 24.3148 3.9876 24.6626 4.17304 25.0044C4.37233 25.3693 4.38861 25.7321 4.25971 26.1377C4.04809 26.7989 4.12926 27.443 4.64972 27.9997C4.87211 28.2369 5.07273 28.4877 5.29512 28.7249C5.62618 29.0765 5.78962 29.4489 5.63432 29.921C5.45856 30.4544 5.55051 30.9633 5.81976 31.4757C6.39125 32.5659 6.76213 33.7214 6.76762 34.9297C6.76894 35.6145 6.84176 36.3309 6.38311 36.9665C5.99574 37.5013 6.21681 38.0407 6.61232 38.4486C7.16182 39.0165 7.41875 39.6838 7.69327 40.3626C7.8224 40.6835 7.79226 40.9565 7.59033 41.2404C6.98452 42.0945 6.95152 43.0114 7.19745 43.9752C7.37057 44.6524 7.71109 45.2548 8.1231 45.825C8.41699 46.2317 8.63806 46.6522 8.72055 47.1266C8.7894 47.5298 8.9678 47.8678 9.32503 48.1357C9.43766 48.2205 9.54743 48.3633 9.55975 48.4898C9.63388 49.1607 9.8125 49.8223 9.59692 50.5107C9.37717 51.2099 9.55843 51.5812 10.2714 51.9609C10.7494 52.2153 10.9251 52.5769 10.9526 53.029C10.9733 53.3781 10.9471 53.731 10.9665 54.08C11.005 54.697 11.215 55.2539 11.7645 55.6671C12.0131 55.8539 12.281 56.0456 12.6326 55.9127C12.9909 55.7801 13.1367 55.4925 13.1436 55.1655C13.153 54.7759 13.1326 54.3824 13.1037 53.9928C13.0542 53.3133 13.0817 52.668 13.862 52.2844L13.9636 52.2019C14.7824 51.4757 14.8675 50.7133 14.2989 49.8111C13.8813 49.1473 13.6904 48.443 14.0639 47.6873C14.2109 47.3896 14.3334 47.0615 14.3593 46.7396C14.3827 46.4249 14.351 46.0672 14.1988 45.792C13.9033 45.2611 13.5149 44.7693 13.148 44.2703C12.5725 43.4886 12.2469 42.6912 12.8664 41.801L12.9515 41.6327C13.5393 40.6728 13.5914 39.714 12.9269 38.764C12.7236 38.4736 12.6974 38.1949 12.9256 37.9023C13.3499 37.3639 13.2661 36.8256 12.935 36.2748C12.7386 35.9503 12.5683 35.6086 12.4308 35.262C12.1671 34.5982 12.4062 34.1948 13.2894 33.9147C13.6396 34.2562 14.0173 34.6434 14.4157 35.0135C15.0076 35.5616 15.7439 35.773 16.5571 35.5655C17.1697 35.4094 17.5322 35.6368 17.8303 36.0399C18.1475 36.4702 18.4168 36.9273 18.7423 37.3502C19.0019 37.6856 19.2848 38.0163 19.6145 38.2966C19.9592 38.5929 20.2285 38.5535 20.5732 38.2559C21.2133 37.6982 21.3505 37.6882 21.9618 38.2573C22.2971 38.5732 22.6583 38.798 23.1638 38.7443C23.5415 38.7023 23.7819 38.8437 23.9315 39.1399C24.2516 39.7766 24.5949 40.4047 24.8888 41.05C25.257 41.8612 25.8655 42.1169 26.7432 41.785C26.8695 41.7372 26.9933 41.6819 27.1222 41.635C27.618 41.4557 27.6688 41.4469 27.9533 41.877C28.3035 42.4067 28.6235 42.9551 28.9174 43.513C29.3116 44.2569 29.9599 44.7447 30.8349 44.8823C31.3677 44.9672 31.6479 45.191 31.8622 45.578C31.9735 45.781 32.1081 45.9752 32.2194 46.178C32.7359 47.1158 33.3211 47.991 34.5283 48.339L34.759 48.4717C35.3538 48.8404 35.9156 49.2225 35.9555 49.9601C35.9966 50.693 36.3316 51.354 36.6367 52.0227C36.8455 52.4788 37.149 52.8464 37.6409 53.0824C38.0406 53.2753 38.3125 53.5629 38.4717 53.9515C38.6242 54.3176 38.8083 54.6753 39.0019 55.0243C39.2724 55.5088 39.7641 55.81 40.109 55.7287C40.4675 55.6438 40.6569 55.2911 40.6391 54.6852C40.6323 54.4196 40.4799 54.1247 40.5663 53.8946C40.7878 53.306 40.5969 52.7493 40.4979 52.1889ZM19.5421 25.9747C19.3994 26.0558 19.2179 26.089 19.049 26.1223C18.6739 26.2009 18.2826 26.2341 17.9185 26.3424C17.5065 26.4654 17.0985 26.6201 16.7194 26.8119C16.4282 26.9607 16.1466 27.1585 15.9366 27.3883C15.6343 27.7213 15.2786 27.9524 14.7923 28.1271C14.6273 28.003 14.4696 27.8566 14.2841 27.7448C13.4709 27.2542 12.9792 27.2188 12.3297 27.655C12.1524 27.7743 11.9449 27.8542 11.5947 28.0312C11.6607 27.6428 11.6785 27.3896 11.7513 27.1499C11.8187 26.9335 11.9559 26.7357 12.0452 26.5243C12.32 25.8753 12.2362 25.6036 11.574 25.2274C11.3022 25.0739 11.199 24.8967 11.206 24.6241C11.217 24.2123 11.2102 23.7993 11.2073 23.3863C11.2047 22.7778 10.9339 22.3231 10.2995 22.0488C9.87365 21.8644 9.83669 21.7317 9.94118 21.3089C10.007 21.0508 10.0619 20.7853 10.0949 20.5211C10.2117 19.6311 9.71461 19.0116 8.98386 18.4842C8.85891 18.3945 8.73111 18.2236 8.73529 18.0921C8.75178 17.4616 8.51685 16.8311 8.79314 16.198C8.96758 15.796 8.68315 15.474 8.37827 15.2145C7.90027 14.8114 7.84395 14.3222 7.96208 13.7937C8.05953 13.3488 8.28764 13.2147 8.78632 13.2761C8.92226 13.2946 9.06525 13.297 9.19547 13.3314C10.3275 13.6375 11.2188 13.2529 12.0072 12.5596C12.1376 12.444 12.2749 12.332 12.4027 12.2141C12.8354 11.8133 13.3697 11.672 13.9742 11.7287C14.3642 11.7643 14.7487 11.8478 15.1376 11.8663C15.6403 11.8909 16.1431 11.8738 16.7034 11.8738C17.8022 13.6596 18.2733 13.8736 19.9656 13.3228C20.3721 13.6903 20.8294 14.0236 20.5314 14.6724C20.3954 14.9712 20.519 15.2895 20.7566 15.5389C21.0835 15.8844 21.4104 16.2311 21.7689 16.5494C22.012 16.7669 22.3087 16.9366 22.5877 17.1321C22.4091 17.3962 22.3239 17.5364 22.2236 17.6655C21.8158 18.1929 21.7346 18.5616 22.1783 19.0163C22.7909 19.6419 22.4695 20.3008 22.4337 20.9585L22.3472 21.1207C21.9106 21.5608 21.4654 21.9971 21.03 22.4384C20.5989 22.8748 20.4698 23.4205 20.3708 23.9699C20.3131 24.2943 20.2927 24.6252 20.2348 24.9508C20.1587 25.3723 19.9596 25.741 19.5421 25.9747Z" fill="#BFDE42"/>
<path d="M219.609 25.5629C219.287 25.4229 218.978 25.489 218.675 25.606C217.897 25.9072 217.107 26.191 216.35 26.5316C215.861 26.7503 215.345 26.9938 214.977 27.3404C213.824 28.4294 212.165 28.8251 210.929 29.7877L210.805 29.8416C209.698 30.241 208.612 30.6995 207.476 31.0204C206.486 31.2995 205.468 31.4676 204.8 32.3159C204.784 32.0948 204.806 31.9153 204.874 31.7505C205.078 31.2651 204.984 30.8176 204.689 30.3946C204.471 30.08 204.222 29.7814 204.005 29.4655C203.901 29.3143 203.771 29.1373 203.774 28.9749C203.785 28.5706 203.585 28.2769 203.332 27.967C203.17 27.7643 203.037 27.4902 203.029 27.2455C202.986 25.9709 202.993 24.6961 202.965 23.4229C202.951 22.7813 202.642 22.2833 202.014 21.9418C201.831 21.8422 201.626 21.6701 201.573 21.4981C201.191 20.2528 200.353 19.1354 200.29 17.802C200.281 17.6606 200.235 17.5155 200.178 17.3829C199.725 16.3258 199.29 15.2626 198.797 14.2216C198.593 13.7913 198.278 13.3968 197.968 13.0145C197.85 12.8718 197.559 12.7011 197.424 12.744C197.227 12.8043 197.007 13.0305 196.967 13.2149C196.896 13.5505 196.938 13.9068 196.953 14.2561C196.992 15.3218 197.04 16.3899 197.086 17.474C196.336 17.624 196.155 18.0715 196.197 18.6073C196.255 19.324 196.349 20.0368 196.439 20.7496C196.492 21.1577 196.608 21.561 196.622 21.9689C196.647 22.7715 196.632 23.5766 196.617 24.3792C196.6 25.279 196.763 26.1493 197.196 26.9605C197.556 27.6412 197.78 28.3444 197.817 29.0942C197.838 29.484 197.861 29.8761 197.847 30.2659C197.835 30.6517 197.992 30.9552 198.323 31.1804C198.553 31.3365 198.817 31.4531 199.2 31.6598C198.901 32.6318 198.625 33.6289 198.284 34.6096C197.959 35.5511 197.518 36.4545 197.819 37.4921C197.956 37.9604 197.746 38.1523 197.224 38.3132C196.898 38.4142 196.558 38.4793 196.236 38.5909C195.402 38.8821 194.554 39.149 193.752 39.5031C193.061 39.8092 193.021 40.2012 193.51 40.7408L193.615 40.8772L193.536 40.9927C193.381 41.0787 193.221 41.161 193.058 41.236C192.015 41.7191 191.173 42.4148 190.43 43.2112C189.926 43.752 189.918 44.116 190.327 44.6678C190.804 45.3081 190.793 45.5221 190.163 46.0319C189.396 46.654 188.61 47.2577 187.822 47.8562C187.465 48.1278 187.163 48.4192 186.998 48.8249C186.943 48.9611 186.81 49.1247 186.668 49.1704C185.833 49.4418 185.311 49.9962 184.904 50.6637C184.543 51.2586 184.06 51.7428 183.384 52.0564C183.019 52.2245 182.62 52.3391 182.262 52.5186C180.659 53.3212 179.343 54.4519 178.033 55.5779C177.732 55.8362 177.555 56.2257 177.38 56.5785C177.197 56.9435 177.11 57.3344 177.532 57.6478C177.888 57.9108 178.313 57.9122 178.817 57.6466L179.098 57.4696C180.032 56.7679 180.951 56.0513 181.9 55.3665C182.252 55.1119 182.647 54.8637 183.069 54.7385C183.893 54.4926 184.746 54.3169 185.597 54.146C186.518 53.9592 187.318 53.6224 187.986 52.9954C188.873 52.1596 189.813 51.368 190.734 50.5605C190.881 50.4328 191.04 50.3036 191.214 50.2103C191.81 49.8883 192.245 49.431 192.495 48.8692C192.938 47.8711 193.674 47.0599 194.436 46.2597C194.778 45.8995 195.157 45.564 195.476 45.1865C195.678 44.9481 195.863 44.6693 195.943 44.3813C196.196 43.4914 196.764 42.8402 197.61 42.3435C198.783 41.6528 199.934 40.9386 201.102 40.2394C201.613 39.9344 201.986 39.535 202.264 39.0433C202.438 38.7348 202.661 38.4399 202.908 38.1732C203.618 37.4049 204.529 36.9305 205.604 36.6476C207.329 36.1941 208.556 35.1789 209.332 33.7395C209.535 33.3635 209.844 33.109 210.218 32.905C210.47 32.7649 210.747 32.6517 211.025 32.5584C211.836 32.2854 212.525 31.8541 213.173 31.3464C213.553 31.0489 213.954 30.7552 214.395 30.545C215.73 29.9133 216.908 29.0946 218 28.1727C218.637 27.6369 219.243 27.0704 219.835 26.4961C220.215 26.1308 220.107 25.778 219.609 25.5629Z" fill="#BFDE42"/>
<path d="M107.424 36.6868C107.041 35.8657 106.7 35.0433 106.762 34.1251C106.805 33.4921 106.744 32.8543 106.771 32.22C106.791 31.7074 106.813 31.1861 106.941 30.6897C107.167 29.8096 107.466 28.9418 107.75 28.0739C107.883 27.6696 107.854 27.2861 107.56 26.9617C107.143 26.4983 107.098 25.9796 107.239 25.4438C107.415 24.7849 107.651 24.1373 107.846 23.4819C107.916 23.2473 107.996 23.0002 107.982 22.7617C107.962 22.355 107.782 21.9786 107.331 21.8128C106.85 21.6345 106.42 21.8004 106.091 22.1311C105.864 22.3587 105.628 22.6081 105.506 22.8872C105.288 23.3813 105.133 23.9012 104.99 24.4188C104.712 25.4327 104.459 26.4542 104.194 27.4708L104.102 27.703C103.561 28.4503 103.373 29.291 103.246 30.1552C103.182 30.6037 102.916 30.8989 102.446 31.1483C101.764 31.5111 101.13 31.972 100.562 32.4696C100.024 32.9407 99.5927 33.5096 99.1175 34.037C99.1312 33.6769 99.1094 33.3116 99.1794 32.9627C99.4237 31.7507 99.7069 30.5436 99.9691 29.3318C100.1 28.7271 100.241 28.1198 100.326 27.5089C100.369 27.1906 100.363 26.8416 100.262 26.5381C100.135 26.1631 99.88 25.8152 99.3648 25.7871C98.8745 25.7575 98.5395 25.9971 98.303 26.3599C98.2234 26.4841 98.1532 26.6156 98.0927 26.7483C97.4884 28.0895 96.8881 29.4316 96.2454 30.8637C96.0311 29.9885 95.6314 29.3529 94.534 29.5781C94.1495 29.0064 94.0546 28.4127 93.9242 27.8314C93.8199 27.3704 93.574 26.9869 93.2154 26.6515C92.9381 26.392 92.5865 26.392 92.2539 26.5015C91.9147 26.6146 91.6866 26.8322 91.6866 27.2009C91.6866 27.507 91.6332 27.8129 91.6083 28.1202C91.567 28.6302 91.4983 29.1416 91.4957 29.6517C91.4944 30.1851 91.53 30.7224 91.5986 31.2533C91.7016 32.0474 91.1591 32.5686 90.6948 33.2005C90.4656 32.7824 90.2361 32.4458 90.0905 32.0806C89.9915 31.8361 90.0355 31.5499 89.9724 31.2905C89.8721 30.8897 89.7209 30.4999 89.6193 30.0993C89.5041 29.6409 89.4106 29.1775 89.3226 28.7164C89.2801 28.4928 89.2924 28.2631 89.2471 28.0416C89.0274 26.9723 88.6853 25.9227 88.6811 24.8201C88.6798 24.4758 88.6248 24.1207 88.526 23.7876C88.4132 23.4128 88.1015 23.2148 87.7828 23.28C87.3749 23.3648 86.9656 23.4876 86.7458 23.8378C86.5234 24.1943 86.316 24.5642 86.1594 24.9477C85.9944 25.3522 85.8969 25.7786 85.7735 26.1965C85.6884 26.4891 85.5056 26.6698 85.1431 26.6538C84.4796 26.6268 84.1459 26.9991 83.9097 27.4772C83.7436 27.8166 83.6255 28.1755 83.433 28.5025C82.9262 29.3714 82.7984 30.2552 83.2174 31.1808C83.3602 31.4966 83.3932 31.8186 83.2601 32.1432C82.8026 33.2604 82.5828 34.4576 81.8413 35.4817C81.6943 35.6844 81.5652 35.9301 81.5432 36.1663C81.5047 36.5657 81.4004 37.0612 81.605 37.361C81.9746 37.8933 82.0448 38.4218 82.0267 39.002C82.0212 39.1236 82.0406 39.2514 82.0723 39.3695C82.1794 39.748 82.5118 40.0183 82.8756 40.0356C83.2766 40.0528 83.5239 39.8685 83.6737 39.4037C83.7847 39.0646 83.918 38.7512 84.2135 38.4931C84.5571 38.1905 84.6299 37.7923 84.4607 37.4027C84.3248 37.0832 84.4277 36.846 84.6242 36.6025C84.7726 36.4195 84.9497 36.2488 85.0665 36.0521C85.1792 35.8592 85.2986 35.6389 85.2973 35.4313C85.2905 34.7381 85.7064 34.244 86.1543 33.7068C86.3109 33.8137 86.4044 33.9159 86.5239 33.9539C87.0718 34.1222 87.2667 34.5291 87.4194 34.9679C87.6349 35.5972 87.8012 36.2427 88.0705 36.8521C88.4385 37.6917 88.8809 38.5043 89.2984 39.3277L89.4686 39.5205C89.6967 39.7368 89.9645 39.7957 90.2845 39.6986C90.7062 39.5744 90.959 39.3175 90.9618 38.9291C90.9645 38.1083 90.933 37.2858 90.9081 36.4637C90.8943 36.0039 90.8602 35.5429 90.8327 35.012C91.3175 35.2433 91.5084 35.5063 91.4673 35.9019C91.448 36.0852 91.4838 36.2756 91.4521 36.4563C91.3272 37.1665 91.8435 37.5563 92.3628 37.9411C92.5619 38.0874 92.8092 38.0899 92.9988 37.9325C93.4906 37.522 93.9726 37.1015 93.878 36.4096C93.8518 36.2303 93.8463 36.0348 93.8958 35.8614C94.0868 35.1964 94.0168 34.5572 93.7269 33.9303C93.6305 33.7238 93.5883 33.5259 93.7324 33.274C94.0674 33.547 94.4163 33.7397 94.6211 34.0188C95.1033 34.6679 95.5289 35.3513 95.9493 36.0346C96.2817 36.5742 96.5632 37.1372 96.8859 37.6817C97.0549 37.9655 97.305 38.1903 97.7031 38.1573C98.107 38.1228 98.3776 37.9287 98.4902 37.5624C98.5601 37.3327 98.6633 37.1114 98.7649 36.8521L98.8542 36.9405L98.8817 37.1224C98.9378 37.9632 99.4475 38.4807 100.309 38.7648C100.609 38.863 100.903 38.9811 101.181 39.1201C102.307 39.6841 103.583 39.4738 104.387 38.5803C104.513 38.4403 104.633 38.2953 104.811 38.0876C104.887 38.3998 104.947 38.637 104.998 38.8742C105.13 39.4606 105.45 39.9533 105.928 40.3602C106.379 40.7437 106.992 40.7721 107.509 40.4587C107.964 40.1821 108.204 39.8256 108.156 39.3132C108.068 38.399 107.816 37.5287 107.424 36.6868ZM85.4755 31.1826C85.8751 30.23 86.2515 29.3377 86.6264 28.444L86.805 28.4845C86.805 28.954 86.7295 29.4359 86.8257 29.8895C86.9163 30.3072 87.1924 30.6946 87.4273 31.1824L85.4755 31.1826ZM103.444 35.8411C103.212 36.0132 103.037 36.248 102.817 36.4374C102.441 36.7641 101.97 36.7063 101.896 36.275C101.826 35.8756 101.947 35.4441 102.021 35.0322C102.094 34.6289 102.28 34.3401 102.778 34.162C103.221 33.9997 103.572 33.6322 104.084 33.2732C104.199 34.2667 104.38 35.1441 103.444 35.8411Z" fill="#BFDE42"/>
<path d="M74.913 17.6693C74.4198 17.7431 73.9035 17.7799 73.446 17.9447C72.8967 18.1414 72.3514 18.4032 71.8844 18.7276C70.4873 19.6987 69.1222 20.7089 67.7555 21.7156C67.4163 21.9664 67.1208 22.2749 66.6305 22.2331C66.2075 22.1975 65.8655 22.3463 65.5524 22.5711C65.0496 22.93 64.5634 23.3111 64.0551 23.665C63.8215 23.8274 63.5689 23.9798 63.2984 24.0855C62.8439 24.265 62.3685 24.4038 61.896 24.5611C61.5788 24.0609 61.5527 23.5385 61.863 22.9965C61.9895 22.7778 62.0967 22.5406 62.1406 22.3008C62.2711 21.5953 62.4482 20.8922 61.9867 20.2014C61.8481 19.9949 61.8947 19.6864 61.8699 19.4223C61.8369 19.0756 61.9235 18.6797 61.7682 18.3898C61.5071 17.9067 61.6033 17.4851 61.7751 17.0341C61.8408 16.8583 61.9125 16.6837 61.966 16.5055C62.2038 15.7201 62.2806 14.9236 62.0991 14.121C61.9 13.2311 61.0443 12.9533 60.2311 13.5053C60.0841 13.6037 59.9385 13.7019 59.8052 13.7917C58.9893 13.6073 58.8327 13.6269 58.4744 14.1037C58.3136 14.3177 58.1954 14.5856 58.1611 14.8401C58.1158 15.2051 58.1776 15.5801 58.1693 15.9512C58.1462 17.1018 58.2572 18.2756 58.0414 19.3965C57.7614 20.8493 57.3932 22.3022 56.7889 23.6924C56.6077 24.1089 56.5527 24.57 56.44 25.0099C56.3342 25.429 56.2572 25.8556 56.1171 26.2651C55.8987 26.9115 55.6184 27.542 55.4015 28.1911C55.3261 28.4198 55.3219 28.684 55.3549 28.9251C55.4099 29.3231 55.675 29.6084 56.1033 29.7361C56.4893 29.8517 56.7709 29.6724 57.0058 29.4204C57.2832 29.1192 57.5524 28.8119 57.8366 28.5133C57.959 28.3853 58.1046 28.2759 58.2403 28.158L58.4037 28.2403C58.3076 28.5893 58.2047 28.9397 58.1154 29.2926C58.048 29.5507 57.9574 29.8125 57.9532 30.0732C57.9394 31.0318 57.7883 31.9452 57.2157 32.7895C56.9768 33.1437 56.8406 33.6254 57.2473 33.935C57.691 34.2744 57.6389 34.6443 57.5577 35.05C57.3036 36.327 57.0454 37.6016 56.7762 38.875C56.7295 39.0963 56.6539 39.3175 56.5467 39.5203C56.1759 40.2173 56.0496 40.9658 55.8628 41.7093C55.6638 42.5083 56.0784 43.0148 56.6072 43.5176C56.9273 43.8237 57.2487 43.8556 57.5714 43.5567C57.8846 43.268 58.2086 42.9288 58.3406 42.5587C58.6125 41.7918 58.9051 41.0396 59.2896 40.3132C59.3857 40.1288 59.4392 39.9225 59.4873 39.7232C59.6754 38.938 59.8527 38.1512 60.0353 37.3655C60.2069 36.622 60.3802 35.8795 60.5764 35.0401C61.3098 35.3474 61.6642 34.9173 62.0461 34.5092C62.1312 34.4159 62.2933 34.3803 62.4581 34.3002C62.612 34.6663 62.6901 35.0019 62.8853 35.2701C63.0804 35.5366 63.3963 35.7344 63.653 35.9669L63.8109 36.1683C64.3905 37.1283 65.032 38.075 65.1171 39.1984C65.1706 39.8965 65.5595 40.3957 66.1349 40.8087C66.8162 41.2967 67.2022 41.9554 67.3725 42.6855C67.6087 43.6861 68.1719 44.5231 68.8421 45.3074C69.1402 45.6562 69.2816 46.0089 69.3338 46.4294C69.3765 46.7735 69.4108 47.145 69.5812 47.4446C69.8668 47.9475 70.0852 48.4452 70.1318 49.0155C70.1648 49.4322 70.5329 49.6804 70.9697 49.6865C71.4559 49.6914 71.6937 49.5105 71.8118 49.0375C71.8322 48.959 71.8351 48.8753 71.8503 48.7525C72.5412 48.7623 72.883 48.5987 72.971 48.1243C73.0918 47.4753 73.1701 46.8164 72.8859 46.1737C72.75 45.8676 72.6387 45.553 72.5234 45.2396C71.8476 43.4006 71.1981 41.5609 71.0854 39.599C71.0564 39.1356 70.7764 38.6488 70.4893 38.2419C70.0016 37.5537 69.6334 36.8569 69.488 36.037C69.2902 34.9281 68.7834 34.5386 67.5485 34.3543C67.0843 34.2842 66.664 34.1563 66.3714 33.785C65.708 32.9433 65.0254 32.1135 64.3551 31.2789C64.2603 31.1608 64.1875 31.0318 64.1052 30.9076C63.8813 30.5757 63.6725 30.2352 63.4334 29.9131C62.9499 29.258 63.2179 28.4873 64.0476 28.2021C64.5639 28.0263 65.0832 27.8617 65.5982 27.6848C67.065 27.182 68.0828 26.329 68.4633 24.907C68.6857 24.0824 69.1624 23.3827 70.1239 23.0583C70.3175 22.9932 70.4893 22.8802 70.6774 22.804C71.6376 22.4069 72.3283 21.7678 72.7775 20.9183C72.9519 20.5902 73.2361 20.3776 73.5412 20.1465C74.1895 19.6561 74.7871 19.1116 75.3885 18.5733C75.5698 18.4122 75.6866 18.2032 75.541 17.9575C75.4061 17.7282 75.1877 17.6274 74.913 17.6693Z" fill="#BFDE42"/>
<path d="M177.806 44.4205C178.035 44.1378 178.109 43.8059 177.997 43.4792C177.818 42.9504 177.616 42.4246 177.375 41.9144C176.981 41.0872 176.756 40.2661 176.918 39.3382C177.172 37.8779 176.811 36.4901 175.816 35.3027C175.39 34.7952 175.235 34.3145 175.328 33.711C175.388 33.3275 175.384 32.933 175.131 32.5729C174.554 31.7531 174 30.9221 173.003 30.4269C172.654 30.2548 172.667 29.8847 173.01 29.6796C173.22 29.5554 173.47 29.4902 173.691 29.3796C174.091 29.1818 174.511 29.0022 174.871 28.754C175.319 28.4442 175.794 28.2266 176.352 28.132C176.567 28.095 176.775 27.993 176.972 27.8973C177.646 27.5729 178.086 27.0528 178.471 26.4788C178.695 26.1445 178.776 25.7941 178.729 25.4142C178.699 25.1686 178.695 24.9152 178.619 24.6806C178.512 24.3512 178.435 23.9664 178.192 23.7303C177.734 23.2817 177.438 22.7544 177.076 22.2591C176.856 21.9555 176.775 21.7207 177.013 21.3703C177.363 20.8565 177.226 20.398 176.736 19.985C176.195 19.5327 175.576 19.3285 174.837 19.4785C174.22 19.6026 173.649 19.4724 173.104 19.2242C172.248 18.8333 171.698 18.8714 171.069 19.5057C170.431 20.151 169.867 20.8579 169.274 21.5388C169.181 21.6455 169.095 21.7587 168.987 21.8939C168.628 21.5988 168.657 21.2437 168.611 20.9045C168.506 20.1498 168.421 19.3913 168.252 18.649C168.152 18.2079 167.819 18.0159 167.433 18.0134C167.012 18.0086 166.622 18.2789 166.494 18.7043C166.442 18.8738 166.464 19.0632 166.457 19.2439C166.435 19.7762 166.449 20.3108 166.387 20.8406C166.27 21.862 166.02 22.8774 165.991 23.9C165.961 25.0223 165.777 26.1075 165.511 27.1979C165.421 27.5678 165.468 27.9698 165.495 28.3556C165.53 28.8522 165.861 29.1755 166.337 29.4101C166.931 29.7003 167.072 30.0605 166.818 30.6367C166.677 30.9625 166.482 31.2686 166.34 31.5956C166.097 32.1562 166.057 32.7336 166.394 33.2696C166.758 33.8511 166.769 34.409 166.564 35.0458C166.403 35.5472 166.337 36.1114 166.413 36.6261C166.51 37.2901 166.517 37.9366 166.428 38.5917C166.391 38.8571 166.355 39.1313 166.394 39.3917C166.425 39.5994 166.521 39.8366 166.678 39.9878C167.264 40.5531 168.204 40.4191 168.538 39.6854C168.73 39.259 168.808 38.7673 168.817 38.3051C168.83 37.5883 168.992 36.9332 169.321 36.2769C169.56 35.7999 169.646 35.2543 169.757 34.733C169.823 34.4184 169.804 34.0915 169.819 33.8592C169.982 33.9674 170.186 34.0928 170.382 34.2279C171.313 34.8657 171.985 35.6929 172.558 36.5964C172.773 36.9346 173.022 37.2726 173.33 37.5417C173.989 38.1171 174.241 38.7941 174.197 39.6029C174.176 39.989 174.179 40.4083 174.327 40.7587C174.613 41.4382 174.805 42.1289 174.959 42.8394C175.102 43.4896 175.388 44.1044 175.948 44.5736C176.537 45.0672 177.341 44.9994 177.806 44.4205ZM172.459 26.5337C172.281 26.8312 171.991 27.0735 171.724 27.366C171.562 27.264 171.417 27.2186 171.358 27.1276C171.091 26.7172 170.774 26.3569 170.358 26.0508C170.205 25.939 170.202 25.6674 170.117 25.4288C170.833 25.2802 171.229 24.9408 171.47 24.4026C171.881 23.4943 172.11 23.4008 173.486 23.5176C172.475 24.1284 172.482 24.8573 172.699 25.6747C172.769 25.9341 172.612 26.277 172.459 26.5337Z" fill="#BFDE42"/>
<path d="M178.01 29.6154C177.482 29.7395 177.261 30.0678 177.366 30.5373C177.486 31.083 177.856 31.3916 178.472 31.3424C179.011 31.2995 179.449 31.4716 179.925 31.6326C180.64 31.8759 181.187 32.4757 182.081 32.3789C182.025 32.5373 182.011 32.6442 181.955 32.7277C181.595 33.2771 181.461 33.8659 181.439 34.4988C181.428 34.7866 181.271 35.0927 181.102 35.3495C180.875 35.6962 180.802 36.0427 180.919 36.4139C181.011 36.71 181.117 37.0112 181.284 37.2767C181.483 37.5925 181.494 37.8508 181.323 38.1923C180.956 38.9299 180.857 39.697 181.312 40.4553C181.385 40.5781 181.442 40.7305 181.436 40.8657C181.385 41.7482 181.464 42.6663 181.216 43.5024C180.868 44.6652 180.838 45.8195 180.868 46.9908C180.882 47.5268 181.005 48.0627 181.379 48.505C181.738 48.9278 182.184 48.8922 182.482 48.4361C182.551 48.3316 182.588 48.2089 182.629 48.0906C182.831 47.5032 183.03 46.9144 183.224 46.3221C183.327 46.0073 183.459 45.6941 183.503 45.3719C183.687 43.9855 183.863 42.5965 184.004 41.2063C184.082 40.4344 184.22 39.697 184.738 39.0504C184.854 38.9043 184.959 38.7199 184.974 38.5464C185.023 37.9539 185.115 37.3529 184.865 36.7726C184.75 36.5072 184.764 36.2539 184.921 36.0033C185.394 35.2499 185.439 34.4434 185.324 33.6076C185.271 33.2265 185.277 32.8369 185.256 32.4523L185.424 32.3428C185.663 32.4424 185.948 32.4964 186.133 32.6489C186.923 33.2991 187.884 33.3657 188.847 33.2328C189.38 33.158 189.78 33.2316 190.188 33.507C190.715 33.8645 191.321 34.0491 191.984 34.0724C192.917 34.1017 193.273 33.8155 193.315 33.008C193.503 32.8863 193.703 32.7794 193.876 32.6454C194.35 32.2753 194.394 31.8182 193.95 31.4111C193.733 31.2107 193.449 31.0387 193.157 30.9405C192.774 30.8113 192.359 30.741 191.951 30.6932C191.659 30.659 191.439 30.5704 191.245 30.3676C190.868 29.9682 190.364 29.7863 189.783 29.7776C189.348 29.7715 188.911 29.7763 188.465 29.7763C187.879 29.0536 187.699 29.002 186.607 29.1324C186.139 29.1863 185.658 29.2922 185.111 29.0782C185.223 28.7611 185.296 28.4379 185.447 28.1501C185.9 27.2849 186.206 26.3788 186.396 25.4473C186.602 24.4333 186.822 23.4292 187.357 22.5022L187.398 22.3843C187.518 21.6727 187.541 20.988 186.859 20.4508C186.315 20.0242 186.302 19.9124 186.663 19.3543C187.033 18.784 187.435 18.2297 187.771 17.6445C187.966 17.3041 188.134 16.9242 188.178 16.5494C188.264 15.796 187.687 15.3645 186.841 15.485C186.084 15.5931 185.63 16.0283 185.33 16.6269C185.114 17.0559 184.881 17.4775 184.651 17.9039C184.063 18.9955 183.444 20.0734 183.271 21.3063C183.209 21.7477 183.019 22.1766 182.853 22.6018C182.597 23.2668 182.386 23.9404 182.4 24.6496C182.408 25.1339 182.29 25.5839 182.05 26.019C181.725 26.6089 181.639 27.2237 181.785 27.8812C181.948 28.6188 181.692 28.8806 180.871 28.8841C180.423 28.8853 179.994 28.9221 179.637 29.1914C179.322 29.4286 178.957 29.517 178.556 29.5381C178.372 29.5477 178.187 29.5737 178.01 29.6154Z" fill="#BFDE42"/>
<path d="M53.0492 34.8035C52.2265 35.3332 51.6893 35.3383 50.8556 34.817C50.6097 34.6635 50.3776 34.4926 50.129 34.345C49.6937 34.0846 49.2377 33.9983 48.7911 34.323C48.5206 34.5184 48.2458 34.5135 47.9572 34.3808C47.4724 34.1558 47.019 34.242 46.5866 34.4877C46.2557 34.6733 45.948 34.8946 45.6114 35.0692C45.1473 35.3076 44.7172 35.0877 44.7104 34.6108C44.7076 34.4507 44.7434 34.2787 44.816 34.1326C44.9643 33.8328 45.1402 33.5438 45.3202 33.2586C45.5468 32.9021 45.8338 32.5692 46.0153 32.1954C46.4315 31.3351 46.279 30.9099 45.4398 30.4119C45.345 30.3554 45.2489 30.3013 45.0963 30.2127C45.2157 29.4162 45.7872 28.9479 46.3915 28.4944C47.2018 27.8871 48.0204 27.2873 48.8006 26.6493C49.2375 26.2916 49.5272 25.8443 49.2223 25.2863C49.6576 25.0404 50.0958 24.9469 50.567 24.9506C50.9585 24.9532 51.3501 24.9544 51.7414 24.9408C52.7304 24.9063 53.5929 24.625 54.2001 23.8851C54.457 23.5703 54.5762 23.2114 54.3595 22.8414C54.1618 22.501 53.8211 22.3461 53.3899 22.3632C52.633 22.3925 51.8749 22.4026 51.1209 22.4628C50.7788 22.491 50.5028 22.4935 50.2597 22.2317C49.9933 21.9453 49.6224 21.8506 49.2034 21.874C48.1636 21.9343 47.2241 22.2465 46.4288 22.8439C46.1831 23.0284 45.9398 23.3293 45.9 23.601C45.8026 24.2868 45.3822 24.6065 44.675 24.7207L44.3466 24.8116C42.9704 25.1644 42.5157 25.6646 42.3274 26.9184C42.2505 27.442 42.1721 28.0062 41.9031 28.4585C41.5184 29.0977 41.3167 29.743 41.2727 30.4521C41.2452 30.9206 41.0419 31.3249 40.6849 31.6737C40.4363 31.9158 40.1548 32.1507 39.99 32.4373C39.7729 32.8121 39.5861 33.2239 39.5105 33.6393C39.4143 34.1568 39.792 34.4946 40.3745 34.534C40.479 34.5413 40.5833 34.5352 40.7535 34.5352C40.6037 34.7653 40.4541 34.9273 40.3827 35.1155C40.2439 35.4804 40.0817 35.8543 40.0461 36.2314C39.9898 36.8214 40.3028 37.0968 40.9746 37.1435C41.2958 37.1669 41.6187 37.1535 41.9414 37.1596C42.6119 37.1744 42.8219 37.3722 42.6915 37.9596C42.5734 38.5017 42.6941 38.9687 43.1957 39.2759C43.6585 39.5626 43.7533 39.9362 43.7643 40.3874C43.7711 40.6738 43.8041 40.9663 43.8932 41.2405C43.9605 41.4468 44.1006 41.6535 44.2654 41.8132C44.5483 42.0909 44.9438 42.1214 45.2474 41.8697C45.5096 41.6498 45.7432 41.3817 45.915 41.099C46.1772 40.6663 46.3519 40.1893 46.6086 39.7543C46.8118 39.4128 47.0494 39.0781 47.3281 38.7846C47.5712 38.5275 47.8747 38.4096 48.3074 38.5559C48.5712 38.6454 48.9462 38.5866 49.2278 38.4907C49.5643 38.3765 49.8844 38.1834 50.1534 37.9671C50.6218 37.5874 51.1204 37.483 51.7399 37.5751C53.1616 37.7866 54.4691 36.9458 54.697 35.6749C54.7449 35.4131 54.6831 35.0836 54.5335 34.8588C54.2168 34.3785 53.7016 34.3832 53.0492 34.8035Z" fill="#BFDE42"/>
<path d="M163.08 31.4221C162.575 30.8777 162.452 30.3566 162.791 29.7221C163.007 29.3143 163.229 28.8999 163.363 28.4672C163.694 27.4052 163.669 26.3579 163.073 25.3538C162.948 25.1435 162.889 24.889 162.861 24.6494C162.798 24.1394 162.603 23.7152 162.18 23.3429C161.433 22.6841 160.628 22.1347 159.624 21.8187C158.242 21.386 156.959 21.5299 155.89 22.411C155.204 22.9778 154.674 23.6943 154.062 24.3347C153.873 24.5325 153.667 24.7355 153.425 24.8731C152.355 25.4815 151.521 26.2447 151.312 27.415C151.189 28.0997 150.921 28.6932 150.403 29.2402C149.738 29.9432 149.685 31.0001 150.256 31.6556C151.01 32.522 151.146 33.4783 150.993 34.5157C150.932 34.9226 150.903 35.333 150.851 35.8287C150.91 36.1972 150.928 36.6558 151.066 37.0834C151.227 37.5799 151.669 37.8405 152.16 37.7287C152.733 37.5958 153.131 37.833 153.564 38.0754C153.908 38.2694 154.265 38.4513 154.639 38.5964C154.859 38.6826 155.014 38.7734 155.129 38.9763C155.499 39.624 155.952 39.8403 156.768 39.6992C157.394 39.5897 157.993 39.3748 158.652 39.4852C158.798 39.5098 158.985 39.4594 159.116 39.3895C159.787 39.034 160.553 38.7574 161.086 38.2769C162.037 37.4202 162.905 36.474 163.693 35.4907C164.164 34.9031 164.512 34.2098 164.292 33.4035C164.084 32.6379 163.615 32.0036 163.08 31.4221ZM158.051 33.5141C158.392 34.1446 158.37 34.1546 158.301 34.7751C157.876 34.8121 157.43 34.8503 157.033 34.8822C156.702 34.4226 156.41 34.0107 156.112 33.6027C155.859 33.2609 155.546 32.9928 155.051 33.0139C154.689 33.0287 154.564 32.8369 154.505 32.5716C154.442 32.2899 154.39 32.0048 154.325 31.7233C154.142 30.9328 154.35 30.2408 155.026 29.705C155.686 29.1812 155.951 28.5802 155.802 27.7837C155.683 27.1544 156.181 26.7794 156.778 26.5176C156.675 26.9134 156.562 27.3079 156.476 27.7062C156.297 28.515 156.674 29.1074 157.403 29.5524C157.575 29.6568 157.763 29.7369 157.933 29.8426C158.371 30.1129 158.46 30.3416 158.293 30.7952C158.215 31.0091 158.102 31.2143 158.006 31.4245C157.686 32.1267 157.672 32.8161 158.051 33.5141Z" fill="#BFDE42"/>
<path d="M36.6301 28.009C36.6039 27.2345 36.7524 26.4948 37.0586 25.7731C37.2854 25.2396 37.4033 24.6755 37.1149 24.1483C36.7947 23.563 36.7207 22.9782 36.8485 22.3538V22.1067C36.8127 21.6335 36.5628 21.4024 36.0313 21.3581C35.5575 21.3213 35.122 21.417 34.721 21.6567C34.5808 21.7416 34.3956 21.8215 34.2361 21.8128C33.3998 21.7674 33.0879 21.975 33.1937 22.6965C33.3063 23.4782 33.2018 24.2109 32.8969 24.9359C32.8488 25.0503 32.8365 25.1757 32.8076 25.2973C32.7031 25.741 32.7718 26.1196 33.2925 26.33C33.6235 26.4639 33.7003 26.7269 33.6442 27.0011C33.5905 27.2593 33.4711 27.5088 33.3611 27.7546C33.1743 28.1751 32.9436 28.5806 32.783 29.007C32.5206 29.709 32.6017 30.3531 33.3076 30.8397C33.5837 31.0302 33.7265 31.2797 33.7113 31.5869C33.6812 32.2017 33.6796 32.82 33.585 33.4271C33.5219 33.8425 33.4352 34.247 33.6413 34.6368C33.8294 34.9907 33.8598 35.3509 33.7636 35.7197C33.6468 36.172 33.7526 36.5775 34.0329 36.9525C34.287 37.2907 34.3789 37.663 34.3666 38.0661C34.3584 38.4362 34.3653 38.8075 34.3653 39.1785H34.3461C34.3461 39.611 34.331 40.0449 34.3503 40.4778C34.3736 41.0014 34.5041 41.5028 34.9271 41.8949C35.3954 42.3276 35.9546 42.277 36.3131 41.7732C36.4077 41.6356 36.4959 41.4746 36.5148 41.3171C36.5767 40.8293 36.6701 40.3327 36.6303 39.8472C36.5382 38.672 36.6702 37.5464 37.3046 36.4915C37.413 36.3147 37.446 36.1019 37.5272 35.9088C37.8719 35.1051 37.7647 34.3344 37.3184 33.5883L37.254 33.4787C37.0287 33.0781 37.0368 32.6946 37.3116 32.3062C37.5327 31.994 37.699 31.6486 37.931 31.3424C38.4572 30.6554 38.3829 29.7655 37.3582 29.2285C36.7894 28.9308 36.6466 28.53 36.6301 28.009Z" fill="#BFDE42"/>
<path d="M33.9792 19.1295C34.5177 19.5228 35.1453 19.6656 35.7894 19.4565C36.4541 19.2413 36.7742 18.7423 36.8263 18.1144C36.8963 17.2712 37.0309 16.4453 37.2575 15.6204C37.5005 14.733 36.8963 14.1834 35.7891 14.3212C35.8483 14.0238 35.9086 13.7879 35.9389 13.5482C36.0353 12.8377 35.4499 12.1765 34.755 12.2478C34.2249 12.3019 33.7317 12.4765 33.3554 12.8501C32.935 13.2681 32.788 13.9206 33.133 14.3903C33.442 14.8059 33.3514 15.1387 33.1165 15.5285C32.876 15.9256 32.6481 16.3374 32.5012 16.7651C32.3045 17.3466 32.387 17.9144 32.9284 18.3496C33.2678 18.6207 33.6275 18.8724 33.9792 19.1295Z" fill="#BFDE42"/>
<path d="M190.899 51.8542V51.9726H190.518V52.86H190.365V51.9726H189.984V51.8542" fill="#BFDE42"/>
<path d="M191.003 51.8542H191.22L191.546 52.7039L191.869 51.8542H192.084V52.86H191.941V52.2714L191.943 52.1631V52.0117L191.62 52.86H191.47L191.139 52.0117V52.0415L191.147 52.1544V52.86H191.003" fill="#BFDE42"/>
</svg>
